<svg viewBox="0 0 100 100" fill="none" xmlns="http://www.w3.org/2000/svg" class="w-8 h-8 md:w-10 md:h-10 text-gold flex-shrink-0 transition-transform duration-500 group-hover:scale-110 group-hover:rotate-3"><style></style><defs><linearGradient id="logo-gold" x1="0%" y1="0%" x2="100%" y2="100%"><stop offset="0%" stop-color="#c9a84c"></stop><stop offset="50%" stop-color="#f0d080"></stop><stop offset="100%" stop-color="#c9a84c"></stop></linearGradient></defs><path d="M50 5C50 5 20 40 20 65C20 81.5 33.5 95 50 95C66.5 95 80 81.5 80 65C80 40 50 5 50 5Z" fill="url(#logo-gold)" fill-opacity="0.15" stroke="url(#logo-gold)" stroke-width="4" stroke-linejoin="round"></path><path d="M50 25C40 40 35 50 35 60C35 68.3 41.7 75 50 75C58.3 75 65 68.3 65 60C65 50 60 40 50 25Z" stroke="url(#logo-gold)" stroke-width="3" stroke-linecap="round"></path><circle cx="50" cy="58" r="5" fill="url(#logo-gold)"></circle><circle cx="50" cy="85" r="2.5" fill="url(#logo-gold)"></circle><path d="M40 60C40 60 45 66 50 66C55 66 60 60 60 60" stroke="url(#logo-gold)" stroke-width="2.5" stroke-linecap="round"></path></svg>