<svg width="19" height="36" viewBox="0 0 19 36" fill="none" xmlns="http://www.w3.org/2000/svg">
<path d="M15.34 35.58H3.70001C2.18001 35.58 0.950012 34.35 0.950012 32.83V3.17001C0.950012 1.65001 2.18001 0.420013 3.70001 0.420013H15.34C16.86 0.420013 18.09 1.65001 18.09 3.17001V32.83C18.09 34.35 16.86 35.58 15.34 35.58Z" fill="#5E475D"/>
<path d="M15.32 0.5H3.72C2.24 0.5 1.03 1.7 1.03 3.19V32.81C1.03 34.29 2.23 35.5 3.72 35.5H15.32C16.8 35.5 18.01 34.3 18.01 32.81V3.19C18.01 1.71 16.8 0.5 15.32 0.5ZM17.92 32.79C17.92 34.24 16.74 35.42 15.29 35.42H3.74C2.29 35.42 1.11 34.24 1.11 32.79V3.21C1.11 1.76 2.29 0.58 3.74 0.58H15.3C16.75 0.58 17.93 1.76 17.93 3.21V32.79H17.92Z" fill="#716F6F"/>
<path d="M15.27 35.31H3.77001C2.38001 35.31 1.24001 34.18 1.24001 32.78V3.22C1.24001 1.83 2.37001 0.690002 3.77001 0.690002H15.27C16.66 0.690002 17.8 1.82 17.8 3.22V32.79C17.8 34.18 16.67 35.31 15.27 35.31Z" fill="#1D1C1A"/>
<path d="M13.95 1.25H15.29C16.38 1.25 17.26 2.13 17.26 3.22V32.78C17.26 33.87 16.38 34.75 15.29 34.75H3.76001C2.67001 34.75 1.79001 33.87 1.79001 32.78V3.22C1.79001 2.13 2.67001 1.25 3.76001 1.25C4.19001 1.25 4.63001 1.25 5.08001 1.25H13.95Z" fill="white"/>
<path d="M18.19 9.39999H18.09V13.64H18.19V9.39999Z" fill="url(#paint0_linear_101_9)"/>
<path d="M18.19 13.64V9.39999L18.24 9.45C18.21 9.9 18.22 13.13 18.24 13.58L18.19 13.64Z" fill="url(#paint1_linear_101_9)"/>
<path d="M0.890001 8.51001H0.830002V11.19H0.890001V8.51001Z" fill="url(#paint2_linear_101_9)"/>
<path d="M0.830004 11.2V8.52002L0.800003 8.55002C0.810003 8.84002 0.810003 10.88 0.800003 11.16L0.830004 11.2Z" fill="url(#paint3_linear_101_9)"/>
<path d="M0.950001 8.51001H0.889999V11.19H0.950001V8.51001Z" fill="url(#paint4_linear_101_9)"/>
<path d="M0.890001 11.89H0.830002V14.57H0.890001V11.89Z" fill="url(#paint5_linear_101_9)"/>
<path d="M0.830004 14.57V11.89L0.800003 11.92C0.810003 12.21 0.810003 14.25 0.800003 14.53L0.830004 14.57Z" fill="url(#paint6_linear_101_9)"/>
<path d="M0.950001 11.89H0.889999V14.57H0.950001V11.89Z" fill="url(#paint7_linear_101_9)"/>
<path d="M0.890001 5.98001H0.830002V7.36001H0.890001V5.98001Z" fill="url(#paint8_linear_101_9)"/>
<path d="M0.830004 7.35V5.97L0.800003 6C0.810003 6.27 0.810003 7.04 0.800003 7.31L0.830004 7.35Z" fill="url(#paint9_linear_101_9)"/>
<path d="M0.950001 5.98001H0.889999V7.36001H0.950001V5.98001Z" fill="url(#paint10_linear_101_9)"/>
<path d="M12.91 10.43H5.99C4.48 10.43 3.28 11.64 3.28 13.14V20.06C3.28 21.57 4.5 22.77 5.99 22.77H12.91C14.42 22.77 15.62 21.55 15.62 20.06V13.14C15.64 11.63 14.41 10.43 12.91 10.43ZM9.79 14.53C9.79 14.46 9.83 14.38 9.91 14.35C10.03 14.31 10.13 14.25 10.25 14.2C10.26 14.2 10.28 14.19 10.28 14.19C10.29 14.19 10.29 14.19 10.29 14.22C10.35 14.49 10.33 14.77 10.26 15.04C10.17 15.28 10.01 15.47 9.77 15.58V14.54H9.79V14.53ZM13.85 17.17C13.79 17.69 13.54 18.18 13.13 18.53C12.25 19.28 10.94 19.17 10.19 18.31C10.07 18.19 10.04 18 10.13 17.85C10.19 17.72 10.23 17.57 10.29 17.42C10.35 17.52 10.41 17.63 10.47 17.73C10.74 18.24 11.29 18.54 11.86 18.48C12.59 18.45 13.19 17.9 13.29 17.17C13.39 16.38 12.87 15.65 12.1 15.47C11.37 15.31 10.64 15.69 10.37 16.39C10.06 17.2 9.79 18 9.5 18.81C9.47 18.91 9.37 18.97 9.25 18.97C9.21 18.97 9.15 18.97 9.1 18.97H9.03C8.9 18.98 8.78 18.91 8.75 18.78C8.69 18.6 8.62 18.3 8.56 18.11C8.37 17.53 8.17 16.96 7.98 16.38C7.95 16.42 7.94 16.47 7.92 16.51C7.68 17.26 7.43 18.02 7.22 18.76C7.21 18.89 7.09 19 6.95 18.97H6.94C6.88 18.97 6.82 18.97 6.76 18.97C6.64 18.98 6.52 18.91 6.49 18.79C6.36 18.45 6.22 18.09 6.1 17.75C5.77 16.87 5.43 15.98 5.1 15.1C5.09 15.07 5.09 15.04 5.07 15.01H5.46C5.58 15.01 5.67 15.08 5.7 15.2C5.82 15.51 5.92 15.84 6.06 16.15C6.3 16.79 6.54 17.43 6.78 18.07C6.79 18.13 6.84 18.19 6.9 18.23C6.93 18.14 6.96 18.05 6.99 17.96C7.23 17.21 7.47 16.47 7.72 15.72C7.78 15.56 7.85 15.48 8 15.48C8.13 15.45 8.28 15.52 8.31 15.67C8.31 15.68 8.31 15.68 8.31 15.7C8.59 16.57 8.86 17.42 9.15 18.3C9.25 18.03 9.33 17.79 9.42 17.54C9.57 17.12 9.72 16.69 9.88 16.27C10.13 15.55 10.77 15.03 11.52 14.93C12.1 14.84 12.68 15.02 13.12 15.39C13.64 15.79 13.94 16.48 13.85 17.17Z" fill="#EE4C70"/>
<defs>
<linearGradient id="paint0_linear_101_9" x1="18.1386" y1="9.40469" x2="18.1386" y2="13.6417" gradientUnits="userSpaceOnUse">
<stop stop-color="#695A5F"/>
<stop offset="0.0185" stop-color="#886E80"/>
<stop offset="0.0382" stop-color="#5F3B5B"/>
<stop offset="0.0821" stop-color="#2B1D2A"/>
<stop offset="0.1053" stop-color="#704A6A"/>
<stop offset="0.9049" stop-color="#615060"/>
<stop offset="0.9391" stop-color="#2B1D2A"/>
<stop offset="0.9646" stop-color="#5F3B5B"/>
<stop offset="0.9829" stop-color="#845776"/>
<stop offset="1" stop-color="#5B4B5D"/>
</linearGradient>
<linearGradient id="paint1_linear_101_9" x1="18.2138" y1="9.40569" x2="18.2138" y2="13.6419" gradientUnits="userSpaceOnUse">
<stop stop-color="#686067"/>
<stop offset="0.064" stop-color="#654E63"/>
<stop offset="0.186" stop-color="#797078"/>
<stop offset="0.8064" stop-color="#797078"/>
<stop offset="0.9191" stop-color="#654E63"/>
<stop offset="1" stop-color="#686067"/>
</linearGradient>
<linearGradient id="paint2_linear_101_9" x1="0.863102" y1="8.51281" x2="0.863102" y2="11.1968" gradientUnits="userSpaceOnUse">
<stop stop-color="#695A5F"/>
<stop offset="0.0185" stop-color="#886E80"/>
<stop offset="0.0382" stop-color="#5F3B5B"/>
<stop offset="0.0821" stop-color="#2D1E2C"/>
<stop offset="0.1053" stop-color="#704A6A"/>
<stop offset="0.9049" stop-color="#615060"/>
<stop offset="0.9391" stop-color="#2D1E2C"/>
<stop offset="0.9646" stop-color="#5F3B5B"/>
<stop offset="0.9829" stop-color="#845776"/>
<stop offset="1" stop-color="#5B4B5D"/>
</linearGradient>
<linearGradient id="paint3_linear_101_9" x1="0.820103" y1="8.51352" x2="0.820103" y2="11.1969" gradientUnits="userSpaceOnUse">
<stop stop-color="#686067"/>
<stop offset="0.064" stop-color="#654E63"/>
<stop offset="0.186" stop-color="#797078"/>
<stop offset="0.8064" stop-color="#797078"/>
<stop offset="0.9191" stop-color="#654E63"/>
<stop offset="1" stop-color="#686067"/>
</linearGradient>
<linearGradient id="paint4_linear_101_9" x1="0.9224" y1="11.1976" x2="0.9224" y2="8.51351" gradientUnits="userSpaceOnUse">
<stop stop-color="#695A5F"/>
<stop offset="0.0531" stop-color="#2D1E2C"/>
<stop offset="0.5184" stop-color="#5F3B5B"/>
<stop offset="0.9646" stop-color="#2D1E2C"/>
<stop offset="1" stop-color="#5B4B5D"/>
</linearGradient>
<linearGradient id="paint5_linear_101_9" x1="0.863102" y1="11.8896" x2="0.863102" y2="14.5736" gradientUnits="userSpaceOnUse">
<stop stop-color="#695A5F"/>
<stop offset="0.0185" stop-color="#886E80"/>
<stop offset="0.0382" stop-color="#5F3B5B"/>
<stop offset="0.0821" stop-color="#2D1E2C"/>
<stop offset="0.1053" stop-color="#704A6A"/>
<stop offset="0.9049" stop-color="#615060"/>
<stop offset="0.9391" stop-color="#2D1E2C"/>
<stop offset="0.9646" stop-color="#5F3B5B"/>
<stop offset="0.9829" stop-color="#845776"/>
<stop offset="1" stop-color="#5B4B5D"/>
</linearGradient>
<linearGradient id="paint6_linear_101_9" x1="0.820104" y1="11.8903" x2="0.820104" y2="14.5738" gradientUnits="userSpaceOnUse">
<stop stop-color="#686067"/>
<stop offset="0.064" stop-color="#654E63"/>
<stop offset="0.186" stop-color="#797078"/>
<stop offset="0.8064" stop-color="#797078"/>
<stop offset="0.9191" stop-color="#654E63"/>
<stop offset="1" stop-color="#686067"/>
</linearGradient>
<linearGradient id="paint7_linear_101_9" x1="0.9224" y1="14.5744" x2="0.9224" y2="11.8903" gradientUnits="userSpaceOnUse">
<stop stop-color="#695A5F"/>
<stop offset="0.0531" stop-color="#2D1E2C"/>
<stop offset="0.5184" stop-color="#5F3B5B"/>
<stop offset="0.9646" stop-color="#2D1E2C"/>
<stop offset="1" stop-color="#5B4B5D"/>
</linearGradient>
<linearGradient id="paint8_linear_101_9" x1="0.863102" y1="5.97681" x2="0.863102" y2="7.35451" gradientUnits="userSpaceOnUse">
<stop stop-color="#695A5F"/>
<stop offset="0.0185" stop-color="#886E80"/>
<stop offset="0.0382" stop-color="#5F3B5B"/>
<stop offset="0.0821" stop-color="#2D1E2C"/>
<stop offset="0.1053" stop-color="#704A6A"/>
<stop offset="0.9049" stop-color="#615060"/>
<stop offset="0.9391" stop-color="#2D1E2C"/>
<stop offset="0.9646" stop-color="#5F3B5B"/>
<stop offset="0.9829" stop-color="#845776"/>
<stop offset="1" stop-color="#5B4B5D"/>
</linearGradient>
<linearGradient id="paint9_linear_101_9" x1="0.820104" y1="5.9774" x2="0.820104" y2="7.3546" gradientUnits="userSpaceOnUse">
<stop stop-color="#686067"/>
<stop offset="0.064" stop-color="#654E63"/>
<stop offset="0.186" stop-color="#797078"/>
<stop offset="0.8064" stop-color="#797078"/>
<stop offset="0.9191" stop-color="#654E63"/>
<stop offset="1" stop-color="#686067"/>
</linearGradient>
<linearGradient id="paint10_linear_101_9" x1="0.9224" y1="7.35521" x2="0.9224" y2="5.97741" gradientUnits="userSpaceOnUse">
<stop stop-color="#695A5F"/>
<stop offset="0.0531" stop-color="#2D1E2C"/>
<stop offset="0.5184" stop-color="#5F3B5B"/>
<stop offset="0.9646" stop-color="#2D1E2C"/>
<stop offset="1" stop-color="#5B4B5D"/>
</linearGradient>
</defs>
</svg>
